<svg width="650" height="448" viewBox="0 0 650 448" fill="none" xmlns="http://www.w3.org/2000/svg">
<rect width="650" height="448" fill="#E5E5E5"/>
<path d="M118.163 64.5557C114.803 68.2748 113.51 73.5038 112.063 78.4196C100.415 118.037 71.7117 149.903 39.0238 172.665C25.1811 182.306 8.32836 195.236 11.3568 212.523C12.9876 221.806 20.1419 228.64 25.457 236.201C36.6084 252.034 40.2254 273.554 34.9103 292.507C28.8656 314.072 11.9699 334.194 17.1992 355.999C20.4239 369.421 31.3729 378.973 41.899 387.183C58.3206 399.982 75.2654 411.973 92.7332 423.154C104.443 430.648 116.9 437.941 130.546 438.891C142.562 439.73 154.333 435.564 165.741 431.453C175.71 427.857 185.929 424.116 193.979 416.913C199.232 412.209 203.42 406.142 209.256 402.294C222.964 393.256 240.57 398.983 256.289 402.853C293.379 411.935 333.074 408.619 368.367 393.491C422.506 370.282 463.77 321.543 516.725 295.393C539.494 284.146 564.261 277.167 585.344 262.682C597.222 254.435 607.429 244.359 615.506 232.908C631.446 210.476 640.065 181.876 637.576 153.88C635.087 125.883 621.14 98.905 599.236 83.1005C575.787 66.1832 546.17 63.0234 519.49 52.8673C491.94 42.3758 467.43 24.3455 440.143 13.0877C418.063 4.00358 394.034 -0.455787 369.819 0.0367881C345.603 0.529363 321.816 5.96139 300.202 15.9343C270.506 29.636 240.405 61.6029 207.331 64.03C183.765 65.7078 136.566 44.1877 118.163 64.5557Z" fill="url(#paint0_angular)"/>
<path d="M418.761 409.425L414.914 353.552L414.834 353.432L410.95 354.688L393.073 403.09L364.65 384.371L409.936 353.889L409.979 353.769L410.237 353.684L413.156 351.715L365.689 326.997L354.056 338.868L355.899 349.997L410.47 350.899V352.04L354.867 351.115L352.777 338.497L368.688 322.26L392.483 296.481L392.907 297.548L397.946 292.412L416.714 295.533V294.843L417.943 294.877V295.739L445.819 300.373L419.805 348.684L416.014 351.235V351.521V351.84L476.122 332.39L468.987 384.445L417.98 354.271L416.186 353.335L446.261 398.359L418.761 409.425ZM416.302 355.584L419.897 407.736L444.51 397.817L416.302 355.584ZM366.789 384.371L392.47 401.281L409.272 355.772L366.789 384.371ZM417.378 352.605L418.662 353.273L468.041 382.493L474.678 334.057L417.378 352.605ZM413.015 348.496L414.557 350.807L414.827 350.625L416.671 296.675L398.395 293.627L393.38 298.764L413.015 348.496ZM366.684 326.209L412.677 350.179L411.878 348.964L392.47 299.728L369.61 323.059L366.684 326.209ZM417.919 296.88L416.075 349.78L418.853 347.908L443.994 301.212L417.919 296.88Z" fill="#535461"/>
<path d="M156.849 409.197L152.996 353.301L152.916 353.181L149.032 354.437L131.162 402.862L102.739 384.148L148.012 353.666L148.055 353.547L148.313 353.461L151.232 351.492L103.765 326.774L92.1382 338.645L93.9818 349.774L148.565 350.699V351.84L92.9617 350.916L90.8599 338.28L106.777 322.037L130.59 296.241L131.014 297.308L136.053 292.172L154.772 295.288V294.597L156.001 294.632V295.494L183.877 300.128L157.888 348.416L154.096 350.967V351.252V351.572L214.198 332.122L207.063 384.177L156.057 354.003L154.262 353.067L184.338 398.085L156.849 409.197ZM154.391 355.356L157.986 407.508L182.599 397.589L154.391 355.356ZM104.871 384.137L130.553 401.047L147.355 355.538L104.871 384.137ZM155.46 352.371L156.745 353.039L206.123 382.259L212.76 333.823L155.46 352.371ZM151.097 348.262L152.64 350.573L152.91 350.391L154.754 296.441L136.477 293.405L131.463 298.541L151.097 348.262ZM104.749 325.97L150.741 349.94L149.942 348.724L130.535 299.489L107.68 322.814L104.749 325.97ZM156.001 296.641L154.158 349.557L156.935 347.685L182.076 300.989L156.001 296.641Z" fill="#535461"/>
<path d="M237.827 316.349L211.582 292.297L203.381 300.015L229.626 324.068L237.827 316.349Z" fill="#6C63FF"/>
<path opacity="0.1" d="M237.827 316.349L211.582 292.297L203.381 300.015L229.626 324.068L237.827 316.349Z" fill="black"/>
<path d="M217.842 280.786C217.842 280.786 233.077 273.321 238.964 268.516C242.508 265.636 246.319 263.052 250.352 260.794L269.464 249.99L309.409 247.137L311.253 253.415C311.253 253.415 314.325 262.546 283.598 270.536C252.871 278.526 237.508 291.082 237.508 291.082C237.508 291.082 217.842 297.337 217.842 280.786Z" fill="#DB8B8B"/>
<path opacity="0.1" d="M239.136 289.843C238.049 290.614 237.508 291.059 237.508 291.059C237.508 291.059 217.842 297.337 217.842 280.786C217.842 280.786 218.795 280.318 220.301 279.536C221.822 281.837 223.953 283.736 226.489 285.054C229.026 286.372 231.885 287.064 234.792 287.064H236.875L239.136 289.843Z" fill="black"/>
<path opacity="0.05" d="M310.675 256.565C308.967 259.927 303.073 265.451 283.598 270.513C258.642 277.002 243.819 286.493 239.136 289.843C238.049 290.614 237.508 291.059 237.508 291.059C237.508 291.059 217.842 297.337 217.842 280.786C217.842 280.786 218.795 280.318 220.301 279.536C224.867 277.213 234.533 272.117 238.946 268.493C242.489 265.612 246.3 263.028 250.333 260.771L269.446 249.968L276.562 249.46L309.391 247.114L311.234 253.392C311.234 253.392 311.664 254.619 310.675 256.565Z" fill="black"/>
<path d="M218.15 277.077L201.864 287.064L249.553 324.16C249.553 324.16 256.559 320.165 252.871 315.6C252.871 315.6 240.581 305.898 239.966 292.2L236.279 287.635H234.195C230.673 287.635 227.237 286.62 224.362 284.728C221.488 282.837 219.317 280.163 218.15 277.077V277.077Z" fill="#ABB1D1"/>
<path opacity="0.1" d="M310.675 256.565C300.842 252.153 276.838 251.68 276.838 251.68L276.58 249.46L309.409 247.114L311.253 253.392C311.253 253.392 311.664 254.619 310.675 256.565Z" fill="black"/>
<path d="M276.838 250.538C276.838 250.538 305.722 251.109 313.096 256.816L309.409 187.76H269.464L276.838 250.538Z" fill="#ABB1D1"/>
<path opacity="0.05" d="M276.838 250.253C276.838 250.253 305.722 250.824 313.096 256.531L309.409 187.474H269.464L276.838 250.253Z" fill="black"/>
<path d="M415.633 284.564C409.11 284.558 402.617 285.372 396.33 286.984C393.087 287.814 389.912 288.858 386.829 290.106C370.402 296.719 357.2 308.755 349.776 323.885C342.353 339.016 341.236 356.166 346.641 372.017C352.046 387.868 363.589 401.294 379.038 409.698C394.486 418.103 412.742 420.887 430.274 417.513C447.805 414.14 463.366 404.848 473.947 391.435C484.528 378.022 489.376 361.441 487.553 344.9C485.731 328.36 477.368 313.034 464.082 301.889C450.795 290.744 433.53 284.571 415.626 284.564H415.633ZM415.387 402.183C402.923 402.178 390.836 398.215 381.134 390.95C371.431 383.685 364.696 373.556 362.048 362.246C359.399 350.936 360.996 339.124 366.574 328.773C372.152 318.423 381.374 310.155 392.71 305.344C395.594 304.118 398.588 303.131 401.658 302.393C409.163 300.584 416.996 300.28 424.638 301.502C432.279 302.723 439.553 305.442 445.974 309.477C452.396 313.512 457.819 318.771 461.882 324.904C465.945 331.037 468.555 337.903 469.538 345.046C470.521 352.188 469.855 359.443 467.583 366.328C465.312 373.213 461.488 379.57 456.366 384.975C451.243 390.381 444.94 394.711 437.875 397.678C430.811 400.645 423.146 402.181 415.393 402.183H415.387Z" fill="#535461"/>
<path d="M300.044 208.283C300.044 208.283 372.344 206 373.819 214.68C375.294 223.361 301.518 219.703 301.518 219.703C301.518 219.703 295.619 214.218 300.044 208.283Z" fill="#535461"/>
<path opacity="0.05" d="M300.044 208.283C300.044 208.283 372.344 206 373.819 214.68C375.294 223.361 301.518 219.703 301.518 219.703C301.518 219.703 295.619 214.218 300.044 208.283Z" fill="black"/>
<path d="M241.515 242.999H228.726V346.23H241.515V242.999Z" fill="#6C63FF"/>
<path opacity="0.1" d="M241.515 242.993V250.943C237.262 251.457 232.911 251.782 228.726 251.908V242.993H241.515Z" fill="black"/>
<path d="M240.556 234.438C238.762 234.309 236.977 234.087 235.209 233.771C228.277 232.538 210.8 229.953 206.099 234.341C200.199 239.82 202.166 249.414 217.904 250.784C233.642 252.153 260.694 248.501 266.109 243.016C266.109 242.993 256.319 235.563 240.556 234.438Z" fill="#535461"/>
<path d="M238.073 271.318L372.35 232.492L376.775 242.086L239.056 285.934L238.073 271.318Z" fill="#6C63FF"/>
<path d="M277.914 332.527L374.809 243.912L380.217 251.217L287.747 340.746L277.914 332.527Z" fill="#6C63FF"/>
<path opacity="0.1" d="M401.652 302.393C398.582 303.131 395.587 304.118 392.704 305.344L386.829 290.1C389.912 288.852 393.087 287.809 396.33 286.978L401.652 302.393Z" fill="black"/>
<path d="M418.091 347.143L411.208 350.796L363.188 226.192L361.037 220.616L372.35 214.674L375.183 222.881L418.091 347.143Z" fill="#6C63FF"/>
<path opacity="0.1" d="M375.183 222.881L363.188 226.192L361.037 220.616L372.35 214.674L375.183 222.881Z" fill="black"/>
<path d="M302.01 232.492L369.394 211.022C369.394 211.022 381.2 212.392 376.769 221.529L308.899 240.254C308.899 240.254 298.575 241.167 302.01 232.492Z" fill="#535461"/>
<path d="M83.1934 336.693C85.6581 326.524 90.6477 317.029 97.7642 308.968C100.406 305.972 103.319 303.192 106.472 300.658C118.595 290.938 133.85 285.232 149.842 284.434C165.835 283.636 181.66 287.792 194.835 296.25C208.009 304.707 217.786 316.988 222.633 331.164C227.479 345.341 227.119 360.61 221.611 374.576C216.102 388.542 205.756 400.415 192.196 408.33C178.637 416.245 162.631 419.754 146.691 418.308C130.751 416.862 115.779 410.541 104.126 400.338C92.4721 390.136 84.796 376.628 82.3023 361.936C81.7221 358.477 81.4303 354.981 81.4297 351.481C81.4255 346.506 82.0171 341.547 83.1934 336.693ZM153.982 401.955C165.187 401.944 176.116 398.728 185.283 392.746C194.45 386.763 201.411 378.304 205.219 368.518C209.027 358.732 209.497 348.094 206.566 338.051C203.634 328.008 197.443 319.048 188.835 312.388C180.226 305.727 169.617 301.691 158.452 300.828C147.286 299.964 136.105 302.315 126.428 307.561C116.752 312.807 109.05 320.693 104.37 330.147C99.6903 339.601 98.2591 350.165 100.272 360.401C102.576 372.068 109.213 382.616 119.026 390.208C128.84 397.8 141.21 401.957 153.982 401.955V401.955Z" fill="#535461"/>
<path opacity="0.1" d="M226.022 351.481C226.021 354.981 225.73 358.477 225.149 361.936C219.25 361.542 213.154 360.972 207.18 360.401C208.507 353.615 208.342 346.649 206.695 339.924C212.514 338.782 218.457 337.692 224.258 336.705C225.434 341.554 226.025 346.51 226.022 351.481V351.481Z" fill="black"/>
<path opacity="0.1" d="M241.515 334.085V346.224H228.726V335.951C233.151 335.238 237.453 334.605 241.515 334.085Z" fill="black"/>
<path d="M158.883 351.269C158.883 351.269 262.176 326.158 270.533 335.74C278.891 345.323 287.747 358.118 261.702 362.684C235.658 367.25 156.935 354.916 156.935 354.916L158.883 351.269Z" fill="#6C63FF"/>
<path opacity="0.1" d="M209.688 308.968L196.561 320.126C194.236 317.354 191.608 314.814 188.719 312.546L200.973 300.658C204.128 303.192 207.044 305.972 209.688 308.968V308.968Z" fill="black"/>
<path d="M155.442 346.23L232.659 271.318L235.123 288.673L159.375 353.079L155.442 346.23Z" fill="#6C63FF"/>
<path opacity="0.1" d="M154.459 358.563C158.806 358.563 162.331 355.29 162.331 351.252C162.331 347.215 158.806 343.942 154.459 343.942C150.111 343.942 146.586 347.215 146.586 351.252C146.586 355.29 150.111 358.563 154.459 358.563Z" fill="black"/>
<path d="M153.469 358.563C157.817 358.563 161.342 355.29 161.342 351.252C161.342 347.215 157.817 343.942 153.469 343.942C149.122 343.942 145.597 347.215 145.597 351.252C145.597 355.29 149.122 358.563 153.469 358.563Z" fill="#535461"/>
<path opacity="0.1" d="M414.895 357.878C419.243 357.878 422.767 354.605 422.767 350.568C422.767 346.53 419.243 343.257 414.895 343.257C410.547 343.257 407.023 346.53 407.023 350.568C407.023 354.605 410.547 357.878 414.895 357.878Z" fill="black"/>
<path d="M415.387 358.792C419.734 358.792 423.259 355.518 423.259 351.481C423.259 347.443 419.734 344.17 415.387 344.17C411.039 344.17 407.514 347.443 407.514 351.481C407.514 355.518 411.039 358.792 415.387 358.792Z" fill="#535461"/>
<path opacity="0.1" d="M275.45 358.563C284.142 358.563 291.188 352.019 291.188 343.947C291.188 335.875 284.142 329.331 275.45 329.331C266.758 329.331 259.711 335.875 259.711 343.947C259.711 352.019 266.758 358.563 275.45 358.563Z" fill="black"/>
<path d="M276.439 358.563C285.131 358.563 292.177 352.019 292.177 343.947C292.177 335.875 285.131 329.331 276.439 329.331C267.747 329.331 260.701 335.875 260.701 343.947C260.701 352.019 267.747 358.563 276.439 358.563Z" fill="#535461"/>
<path d="M272.237 342.849L272.232 342.853C270.384 344.136 270.006 346.568 271.388 348.285L283.879 363.797C285.261 365.513 287.88 365.864 289.728 364.581L289.733 364.577C291.582 363.294 291.96 360.862 290.577 359.145L278.086 343.633C276.704 341.916 274.085 341.566 272.237 342.849Z" fill="#6C63FF"/>
<path d="M347.511 140.961L346.048 158.145C345.88 160.322 345.911 162.508 346.14 164.68C346.331 166.603 346.14 169.97 344.112 175.107C341.508 181.668 340.163 188.603 340.136 195.596V215.154L326.002 212.871C326.002 212.871 326.616 185.477 324.158 180.911C321.7 176.345 326.002 135.825 326.002 135.825L347.511 140.961Z" fill="#DB8B8B"/>
<path opacity="0.05" d="M346.785 149.476L346.048 158.145C345.882 160.32 345.915 162.504 346.146 164.674C346.337 166.597 346.146 169.965 344.118 175.107C341.515 181.668 340.169 188.603 340.142 195.596V215.154L326.008 212.871C326.008 212.871 326.622 185.477 324.164 180.911C322.425 177.675 324.072 156.405 325.184 144.265C325.645 139.272 326.008 135.825 326.008 135.825L347.517 140.961L346.785 149.476Z" fill="black"/>
<path d="M277.465 272.225L272.15 300.305C271.479 304.054 270.451 307.74 269.077 311.319C265.961 319.23 267.952 330.319 269.464 336.368C270.134 339.039 270.693 340.728 270.693 340.728L254.715 348.718L249.799 345.294V343.011L249.184 292.218C245.497 284.228 246.726 272.243 249.184 267.677C249.883 266.177 250.375 264.6 250.647 262.986C251.876 256.867 252.257 248.273 252.257 248.273C252.257 248.273 262.089 232.863 273.766 243.136C278.068 246.92 279.702 251.868 280.046 256.605C280.649 264.715 277.465 272.225 277.465 272.225Z" fill="#DB8B8B"/>
<path opacity="0.1" d="M280.046 256.588C271.523 261.291 256.694 262.62 250.647 262.968C251.876 256.85 252.257 248.255 252.257 248.255C252.257 248.255 262.089 232.846 273.766 243.119C278.068 246.903 279.702 251.851 280.046 256.588Z" fill="black"/>
<path d="M300.806 242.548C294.271 245.78 288.095 249.603 282.369 253.963C272.537 261.382 247.955 261.953 247.955 261.953V253.392C248.57 243.119 238.122 231.705 223.988 199.745C214.96 179.336 217.461 167.785 220.448 162.077C222.144 158.853 223.988 157.512 223.988 157.512L300.806 171.209L303.553 178.856L309.409 195.179C309.409 195.179 287.9 196.32 284.213 198.032C280.526 199.745 282.984 215.154 282.984 215.154C279.297 231.134 300.806 242.548 300.806 242.548Z" fill="#ABB1D1"/>
<path opacity="0.1" d="M347.511 140.961L346.785 149.476C336.092 152.33 328.46 143.244 328.46 143.244C327.344 143.522 326.249 143.863 325.178 144.265C325.639 139.272 326.002 135.825 326.002 135.825L347.511 140.961Z" fill="black"/>
<path opacity="0.1" d="M303.553 178.856C303.264 181.522 303.264 183.194 303.264 183.194C303.264 183.194 289.129 194.037 265.162 177.487C241.195 160.936 219.686 165.502 219.686 165.502C219.686 165.502 219.938 164.178 220.448 162.077C222.144 158.853 223.988 157.512 223.988 157.512L300.806 171.209L303.553 178.856Z" fill="black"/>
<path d="M355.795 118.675C354.191 130.289 353.656 144.927 353.656 144.927C339.522 155.2 328.46 142.074 328.46 142.074C315.112 145.401 308.838 156.25 305.882 165.719C304.298 170.84 303.419 176.127 303.264 181.453C303.264 181.453 299.527 184.307 292.644 184.877C286.136 185.385 276.808 183.81 265.162 175.746C241.195 159.195 219.686 163.761 219.686 163.761C219.686 163.761 223.988 140.932 233.821 134.084C243.653 127.235 251.028 118.675 263.319 92.4216C275.609 66.1687 300.806 72.4466 300.806 72.4466C300.806 72.4466 302.035 67.3102 324.773 72.4466C330.311 73.7946 335.437 76.3166 339.749 79.8145C351.911 89.3112 357.81 104.041 355.795 118.675Z" fill="white"/>
<path d="M332.989 85.3162C332.958 86.0753 332.891 86.9199 332.78 87.8616C331.551 98.1345 330.322 96.9931 316.802 99.2759C308.395 100.697 304.026 94.1737 301.924 89.0373C301.163 87.1766 300.589 85.2546 300.209 83.2959L329.707 78.7302C329.707 78.7302 333.241 77.8113 332.989 85.3162Z" fill="#DB8B8B"/>
<path opacity="0.05" d="M305.882 165.747C304.298 170.869 303.419 176.155 303.264 181.482C303.264 181.482 299.527 184.335 292.644 184.906C292.451 184.542 292.302 184.159 292.202 183.765C290.973 178.628 281.755 169.497 281.755 169.497C275.609 164.36 274.38 155.229 274.38 155.229L264.24 127.549L260.86 124.981C260.86 124.981 274.995 114.708 287.286 123.269C299.576 131.829 295.889 150.092 295.889 150.092L298.347 156.37C300.898 158.368 303.491 161.889 305.882 165.747Z" fill="black"/>
<path d="M262.704 124.41L276.224 154.658C276.224 154.658 277.453 163.79 283.598 168.926C283.598 168.926 292.816 178.057 294.046 183.194C295.275 188.33 312.482 202.027 312.482 202.027C312.482 202.027 328.46 215.725 329.689 220.861C329.689 220.861 344.438 224.856 342.594 232.846C342.594 232.846 353.656 222.573 342.594 212.871C331.533 203.169 316.784 183.194 316.784 183.194C316.784 183.194 308.18 162.077 300.191 155.8L297.733 149.522C297.733 149.522 301.42 131.259 289.129 122.698C276.838 114.137 262.704 124.41 262.704 124.41Z" fill="#DB8B8B"/>
<path opacity="0.1" d="M270.693 340.711L254.715 348.701L249.799 345.277V342.994C255.32 342.63 260.684 341.127 265.5 338.594C266.975 337.818 268.364 337.053 269.476 336.38C270.121 339.022 270.693 340.711 270.693 340.711Z" fill="black"/>
<path opacity="0.1" d="M289.129 100.44L297.733 131.83C297.733 131.83 271.308 135.825 265.777 131.83C260.246 127.835 249.799 126.693 249.799 126.693C249.799 126.693 260.86 97.0159 267.006 93.5916C273.151 90.1673 289.129 100.44 289.129 100.44Z" fill="black"/>
<path d="M289.129 99.2988L297.733 130.688C297.733 130.688 271.308 134.683 265.777 130.688C260.246 126.693 249.799 125.552 249.799 125.552C249.799 125.552 260.86 95.8745 267.006 92.4502C273.151 89.0259 289.129 99.2988 289.129 99.2988Z" fill="white"/>
<path opacity="0.1" d="M332.989 84.7455C331.268 86.952 329.079 88.8082 326.556 90.1998C324.034 91.5914 321.232 92.4891 318.322 92.8377C315.412 93.1862 312.456 92.9782 309.636 92.2265C306.816 91.4748 304.192 90.1953 301.924 88.4666C301.163 86.6059 300.589 84.6839 300.209 82.7252L329.707 78.1595C329.707 78.1595 333.241 77.2406 332.989 84.7455Z" fill="black"/>
<path d="M337.063 72.4751C337.063 77.7728 334.797 82.8536 330.764 86.5996C326.73 90.3457 321.259 92.4502 315.555 92.4502C309.85 92.4502 304.379 90.3457 300.345 86.5996C296.312 82.8536 294.046 77.7728 294.046 72.4751C294.046 72.1441 294.046 71.8131 294.046 71.4821C294.187 66.1844 296.59 61.156 300.723 57.503C304.857 53.8501 310.385 51.8719 316.089 52.0036C321.794 52.1353 327.208 54.3661 331.142 58.2052C335.075 62.0444 337.205 67.1774 337.063 72.4751V72.4751Z" fill="#DB8B8B"/>
<path opacity="0.1" d="M337.063 72.4751C337.065 74.3161 336.792 76.1484 336.252 77.9198C334.59 78.2563 332.856 78.1088 331.287 77.4974C328.988 76.6585 327.016 75.2146 324.81 74.1759C318.597 71.2538 311.204 71.8302 304.321 72.7947C300.904 73.2741 297.026 73.7193 294.341 71.699C294.248 71.6313 294.16 71.5589 294.076 71.4821C294.218 66.1844 296.62 61.156 300.754 57.503C304.888 53.8501 310.415 51.8719 316.12 52.0036C321.824 52.1353 327.239 54.3661 331.172 58.2052C335.106 62.0444 337.236 67.1774 337.094 72.4751H337.063Z" fill="black"/>
<path d="M280.383 58.4989C281.692 62.3113 287.979 62.4311 291.205 65.2391C292.883 66.7001 293.664 68.8574 295.507 70.1586C298.07 71.9735 301.769 71.574 305.033 71.1403C311.602 70.2728 318.657 69.7534 324.581 72.3844C326.683 73.3147 328.569 74.6159 330.763 75.375C332.957 76.134 335.68 76.2253 337.462 74.8784C338.888 73.7998 339.41 72.0249 340.701 70.8378C341.702 69.9018 343.097 69.3767 344.24 68.5549C346.748 66.7971 347.829 63.9321 348.542 61.1927C350.017 55.554 350.441 49.4759 347.927 44.1283C345.414 38.7807 339.367 34.4262 332.767 34.7058C330.745 34.7914 328.772 35.2765 326.757 35.482C321.502 35.9785 316.309 34.3405 311.037 34.0609C309.507 33.8881 307.956 34.0846 306.532 34.6316C305.459 35.1857 304.533 35.956 303.822 36.8859C301.408 39.8225 299.755 43.2362 298.992 46.862C298.377 49.5958 298.346 52.0727 294.739 52.495C290.64 52.9972 277.612 50.4347 280.383 58.4989Z" fill="#472727"/>
<path opacity="0.05" d="M236.586 133.827C236.586 133.827 252.564 137.822 257.48 148.095C262.397 158.368 275.695 160.245 275.695 160.245" fill="black"/>
<path d="M296.811 359.83H259.939V370.674H296.811V359.83Z" fill="#6C63FF"/>
<path opacity="0.1" d="M296.811 359.83H259.939V370.674H296.811V359.83Z" fill="black"/>
<path d="M265.476 339.707C268.776 337.995 271.67 336.282 271.922 335.575C271.922 335.575 280.249 343.736 287.667 346.27C290.161 347.126 292.549 348.228 294.789 349.557C297.727 351.269 301.918 353.284 305.722 353.284C305.722 353.284 314.325 360.133 297.733 361.274C281.14 362.416 242.424 358.421 242.424 358.421L244.882 344.153C252.065 344.544 259.216 343 265.476 339.707Z" fill="#ABB1D1"/>
<defs>
<radialGradient id="paint0_angular" cx="0" cy="0" r="1" gradientUnits="userSpaceOnUse" gradientTransform="translate(198.544 185.694) rotate(3.88272) scale(285.11 253.889)">
<stop offset="0.315625" stop-color="#006DD2" stop-opacity="0.84"/>
<stop offset="0.648958" stop-color="#3420B0" stop-opacity="0.53"/>
<stop offset="0.773958" stop-color="#1EE1CA" stop-opacity="0"/>
</radialGradient>
</defs>
</svg>
